<?xml version="1.0" encoding="UTF-8" standalone="no"?>
<!DOCTYPE svg PUBLIC "-//W3C//DTD SVG 1.1//EN" "http://www.w3.org/Graphics/SVG/1.1/DTD/svg11.dtd">
<svg version="1.1" xmlns="http://www.w3.org/2000/svg" xmlns:xlink="http://www.w3.org/1999/xlink" preserveAspectRatio="xMidYMid meet" viewBox="0 0 414.75 414.75" width="414.75" height="414.75"><defs><path d="M2.56 67.94C7.19 57.94 17.19 51.06 28.94 51.06C64.63 51.06 350.13 51.06 385.81 51.06C397.44 51.06 407.56 57.94 412.19 67.94C393.26 86.85 241.86 238.15 222.94 257.06C218.81 261.19 213.19 263.56 207.31 263.56C201.44 263.56 195.81 261.19 191.69 257.06C153.86 219.24 21.47 86.85 2.56 67.94Z" id="b68UE1wSh"></path><path d="M414.75 334.69C414.75 350.69 401.75 363.69 385.75 363.69C350.08 363.69 64.68 363.69 29 363.69C13 363.69 0 350.69 0 334.69C0 319.09 0 241.09 0 100.69C104.4 205.09 162.4 263.09 174 274.69C182.88 283.56 194.75 288.44 207.37 288.44C220 288.44 231.75 283.56 240.75 274.69C252.35 263.09 310.35 205.09 414.75 100.69C414.75 241.09 414.75 319.09 414.75 334.69Z" id="b1NdBlfRbb"></path></defs><g><g><g><use xlink:href="#b68UE1wSh" opacity="1" fill="#323232" fill-opacity="1"></use><g><use xlink:href="#b68UE1wSh" opacity="1" fill-opacity="0" stroke="#323232" stroke-width="1" stroke-opacity="1"></use></g></g><g><use xlink:href="#b1NdBlfRbb" opacity="1" fill="#323232" fill-opacity="1"></use><g><use xlink:href="#b1NdBlfRbb" opacity="1" fill-opacity="0" stroke="#323232" stroke-width="1" stroke-opacity="1"></use></g></g></g></g></svg>