<?xml version="1.0" encoding="UTF-8" standalone="no"?>
<!DOCTYPE svg PUBLIC "-//W3C//DTD SVG 1.1//EN" "http://www.w3.org/Graphics/SVG/1.1/DTD/svg11.dtd">
<svg version="1.1" xmlns="http://www.w3.org/2000/svg" xmlns:xlink="http://www.w3.org/1999/xlink" preserveAspectRatio="xMidYMid meet" viewBox="0 0 50 50" width="50" height="50"><defs><path d="M35.7 25.92C24.53 24.5 18.15 24.5 16.57 25.92C15.26 27.09 15.11 28.42 16.12 29.89C16.12 29.89 17.1 31.13 17.1 31.13C27.22 42.34 33.17 48.14 34.95 48.54C36.78 48.96 37.78 48.09 37.95 45.92C38.2 20 38.2 6.29 37.95 4.79C37.7 3.29 36.7 2.29 34.95 1.79C23.2 1.21 16.57 1.21 15.07 1.79C13.57 2.38 12.7 3.38 12.45 4.79L12.45 48.54" id="axXWuA9LC"></path></defs><g><g><g><g><use xlink:href="#axXWuA9LC" opacity="1" fill-opacity="0" stroke="#323232" stroke-width="2" stroke-opacity="1"></use></g></g></g></g></svg>