<?xml version="1.0" encoding="UTF-8" standalone="no"?>
<!DOCTYPE svg PUBLIC "-//W3C//DTD SVG 1.1//EN" "http://www.w3.org/Graphics/SVG/1.1/DTD/svg11.dtd">
<svg version="1.1" xmlns="http://www.w3.org/2000/svg" xmlns:xlink="http://www.w3.org/1999/xlink" preserveAspectRatio="xMidYMid meet" viewBox="0 0 60 60" width="60" height="60"><defs><path d="M35.7 25.92C24.53 24.5 18.15 24.5 16.57 25.92C15.26 27.09 15.11 28.42 16.12 29.89C16.12 29.89 17.1 31.13 17.1 31.13C27.22 42.34 33.17 48.14 34.95 48.54C36.78 48.96 37.78 48.09 37.95 45.92C38.2 20 38.2 6.29 37.95 4.79C37.7 3.29 36.7 2.29 34.95 1.79C23.2 1.21 16.57 1.21 15.07 1.79C13.57 2.38 12.7 3.38 12.45 4.79C12.45 7.71 12.45 22.29 12.45 48.54" id="mH5Uln8oJ"></path><path d="M40.41 30.92C29.24 29.5 22.86 29.5 21.28 30.92C19.97 32.09 19.82 33.42 20.83 34.89C20.83 34.89 21.81 36.13 21.81 36.13C31.93 47.34 37.88 53.14 39.66 53.54C41.49 53.96 42.49 53.09 42.66 50.92C42.91 25 42.91 11.29 42.66 9.79C42.41 8.29 41.41 7.29 39.66 6.79C27.91 6.21 21.28 6.21 19.78 6.79C18.28 7.38 17.41 8.38 17.16 9.79C17.16 12.71 17.16 27.29 17.16 53.54" id="e3EXtLRAKM"></path></defs><g><g><g><use xlink:href="#mH5Uln8oJ" opacity="1" fill="#000000" fill-opacity="0"></use><g><use xlink:href="#mH5Uln8oJ" opacity="1" fill-opacity="0" stroke="#000000" stroke-width="1" stroke-opacity="0"></use></g></g><g><use xlink:href="#e3EXtLRAKM" opacity="1" fill="#000000" fill-opacity="0"></use><g><use xlink:href="#e3EXtLRAKM" opacity="1" fill-opacity="0" stroke="#ffffff" stroke-width="5" stroke-opacity="1"></use></g></g></g></g></svg>